<svg width="229" height="136" viewBox="0 0 229 136" xmlns="http://www.w3.org/2000/svg"><title>TROOP</title><path d="M22.852 86.495l.835 39.827c0 4.453-.975 6.68-2.923 6.68-1.169 0-2.06-.793-2.672-2.38-.612-1.586-.918-3.075-.918-4.467l1.42-28.054c0-6.012-.404-15.1-1.211-27.262-.808-12.163-1.211-21.305-1.211-27.428l.167-16.032c0-11.745-.974-17.617-2.922-17.617L3.73 10.764c-.835 0-1.642-.265-2.421-.794C.53 9.442.14 8.732.14 7.841c0-1.169 3.786-2.282 11.356-3.34 7.57-1.057 13.582-1.586 18.035-1.586.835 0 1.642.292 2.422.877.779.584 1.169 1.266 1.169 2.045 0 1.67-1.086 2.505-3.257 2.505l-6.345-.5c-1.949 0-3.145.584-3.59 1.753.834 7.18 1.252 14.584 1.252 22.21l-.25 20.707c0 13.47.806 23.156 2.42 29.056a25.078 25.078 0 0 0-.5 4.927zm23.5-79.823l-.334-3.089c0-1.002 1.141-1.503 3.424-1.503 4.676 0 8.252 1.308 10.729 3.924 2.477 2.617 4.12 5.428 4.926 8.434a481.336 481.336 0 0 0 1.879 6.846c.946 3.396 1.42 6.04 1.42 7.932 0 5.734-1.587 12.636-4.76 20.707-2.06 5.121-3.09 7.96-3.09 8.517 0 5.566 2.227 16.796 6.68 33.69 4.454 16.895 8.1 28.876 10.938 35.946 0 3.73-.751 5.594-2.254 5.594-1.169 0-2.13-.515-2.88-1.545-.752-1.03-1.211-1.628-1.378-1.795-.334-4.453-1.795-10.646-4.384-18.578-2.588-7.932-4.175-13.22-4.76-15.864-.584-2.644-1.627-8.03-3.13-16.157s-2.84-14.36-4.008-18.703l-1.336-1.002-3.256 1.336v64.125l.334 4.259c0 2.282-1.03 3.423-3.09 3.423-.835 0-1.53-.264-2.087-.793-.557-.53-.835-1.211-.835-2.046l.584-.918.668-103.786V6.672zm4.76.835l-.835 37.323c0 4.899.167 8.545.5 10.938h.335c.835 0 2.324-1.169 4.467-3.507s3.618-4.202 4.425-5.594c.807-1.392 1.461-3.702 1.962-6.93.501-3.229.752-5.914.752-8.058a51.81 51.81 0 0 0-.46-6.721c-.306-2.338-.793-4.87-1.46-7.598-.669-2.728-1.726-4.996-3.174-6.805-1.447-1.81-3.145-2.714-5.093-2.714v-.5l-1.42.166zm80.11 72.892l-1.586 22.043.334.668c-.89 3.841-1.336 7.292-1.336 10.354 0 3.061-.612 6.22-1.837 9.477-1.224 3.256-3.047 6.178-5.469 8.767-2.42 2.588-5.023 3.882-7.806 3.882-2.784 0-5.372-1.057-7.766-3.173-2.393-2.115-4.383-4.828-5.97-8.14-1.586-3.312-2.978-7.237-4.174-11.773a128.534 128.534 0 0 1-2.797-13.36 241.08 241.08 0 0 1-1.67-13.568c-.668-7.793-1.002-14.542-1.002-20.248 0-5.705.25-12.204.751-19.496.501-7.292.78-11.996.835-14.11.056-2.116.111-3.98.167-5.595.056-1.614.195-3.549.418-5.803.222-2.254.514-4.23.876-5.928a31.117 31.117 0 0 1 1.628-5.219c.724-1.781 1.615-3.256 2.672-4.425 2.338-2.616 5.608-3.924 9.811-3.924s7.668 1.14 10.395 3.423c.39.612 1.406 1.976 3.048 4.091 1.642 2.116 2.867 4.133 3.674 6.054.807 1.92 1.711 6.638 2.713 14.152 2.728 19.483 4.092 36.766 4.092 51.851zM107.594 5.253c-8.405 0-12.608 16.894-12.608 50.682v6.68c0 7.904.599 16.407 1.796 25.508 1.196 9.1 2.449 16.49 3.757 22.168 1.308 5.678 3.145 10.52 5.51 14.528 2.366 4.008 4.997 6.012 7.891 6.012 3.897 0 6.735-3.966 8.517-11.898 1.78-7.932 2.839-14.988 3.173-21.166.39-8.461.584-13.972.584-16.533v-4.09c0-2.116-.014-3.911-.042-5.386-.028-1.476-.07-3.897-.125-7.265-.056-3.367-.167-6.36-.334-8.975-.167-2.617-.39-5.79-.668-9.519-.278-3.73-.668-7.055-1.169-9.978a451.013 451.013 0 0 0-1.712-9.351c-.64-3.312-1.419-6.165-2.337-8.559a49.27 49.27 0 0 0-3.132-6.68c-2.393-4.119-5.427-6.178-9.1-6.178zm78.442 75.146l-1.587 22.043.334.668c-.89 3.841-1.336 7.292-1.336 10.354 0 3.061-.612 6.22-1.837 9.477-1.224 3.256-3.047 6.178-5.469 8.767-2.421 2.588-5.023 3.882-7.807 3.882-2.783 0-5.371-1.057-7.765-3.173-2.393-2.115-4.383-4.828-5.97-8.14-1.586-3.312-2.978-7.237-4.175-11.773a128.534 128.534 0 0 1-2.797-13.36 241.08 241.08 0 0 1-1.67-13.568c-.668-7.793-1.002-14.542-1.002-20.248 0-5.705.251-12.204.752-19.496.5-7.292.78-11.996.835-14.11.056-2.116.111-3.98.167-5.595.056-1.614.195-3.549.417-5.803.223-2.254.515-4.23.877-5.928a31.117 31.117 0 0 1 1.628-5.219c.724-1.781 1.615-3.256 2.672-4.425 2.338-2.616 5.608-3.924 9.81-3.924 4.204 0 7.669 1.14 10.396 3.423.39.612 1.406 1.976 3.048 4.091 1.642 2.116 2.866 4.133 3.674 6.054.807 1.92 1.711 6.638 2.713 14.152 2.728 19.483 4.092 36.766 4.092 51.851zm-23.63-75.146c-8.405 0-12.608 16.894-12.608 50.682v6.68c0 7.904.599 16.407 1.795 25.508 1.197 9.1 2.45 16.49 3.758 22.168 1.308 5.678 3.145 10.52 5.51 14.528 2.366 4.008 4.996 6.012 7.89 6.012 3.897 0 6.736-3.966 8.517-11.898 1.782-7.932 2.84-14.988 3.173-21.166.39-8.461.585-13.972.585-16.533v-4.09c0-2.116-.014-3.911-.042-5.386-.028-1.476-.07-3.897-.125-7.265-.056-3.367-.167-6.36-.334-8.975-.167-2.617-.39-5.79-.668-9.519-.278-3.73-.668-7.055-1.17-9.978a451.006 451.006 0 0 0-1.71-9.351c-.64-3.312-1.42-6.165-2.339-8.559a49.27 49.27 0 0 0-3.13-6.68c-2.394-4.119-5.428-6.178-9.102-6.178zm44.876 66.212l1.42 56.277c0 1.67-.237 2.964-.71 3.882-.474.919-1.448 1.378-2.923 1.378s-2.212-1.976-2.212-5.928l.668-30.643-1.336-27.721c0-12.692-.153-23.142-.46-31.353-.306-8.21-.5-13.68-.584-16.407a717.424 717.424 0 0 0-.209-6.179c-.278-4.397-.78-8.07-1.503-11.021 1.058-1.614 2.533-2.421 4.426-2.421 4.063 0 7.723.946 10.98 2.838 3.256 1.893 5.858 4.37 7.806 7.432 4.008 6.401 6.012 12.941 6.012 19.621 0 6.68-1.197 13.47-3.59 20.373-3.006 8.74-6.847 14.083-11.523 16.032-1.503.612-2.533 1.252-3.09 1.92-.946 1.002-2.003 1.642-3.172 1.92zm-2.338-65.127l2.004 58.448.334.334c1.169-.112 2.046-.432 2.63-.96.585-.53 1.155-1.1 1.712-1.712.556-.613.946-1.03 1.169-1.253 7.403-7.403 11.105-16.699 11.105-27.887 0-3.897-.167-7.014-.501-9.352-.334-2.338-1.295-4.578-2.88-6.721-1.587-2.143-2.951-3.688-4.092-4.634-1.141-.947-2.756-2.185-4.843-3.716-2.087-1.53-3.27-2.38-3.549-2.547h-3.089z" fill="#000" fill-rule="evenodd"/></svg>