<svg width="237" height="72" viewBox="0 0 237 72" xmlns="http://www.w3.org/2000/svg"><title>troop</title><path d="M25.267 63.02l-1.184-.69-.986.196-1.085-.887-1.38-.592v-.197l-.888-.198v.198h-.296l-2.663-1.48-.099-.493-1.775-.395a32.056 32.056 0 0 1-.987-3.698 806.91 806.91 0 0 1-.789-3.896 449.295 449.295 0 0 1-.789-4.044h.592v-.395h-.197l-.395-2.959h-.296l-.197.296v-.197l.394-.986-.394-.395h.197v-.986a9.123 9.123 0 0 1-.64-2.515 14.2 14.2 0 0 0-.543-2.614l-.592-.197a50.441 50.441 0 0 1-.296-3.206 8.953 8.953 0 0 0-.69-3.008l-3.847-1.874v-.494l-.79-.295v-.395l-.788-.296-.198-.493-2.17-1.973-.394-2.071h.394v-.592L1.3 20.41H.905l-.198-.986.888-1.677-.099-.592.296-.789h.592v-.394l1.48-.69a8.675 8.675 0 0 0 2.416-1.43c.756-.626 1.562-1.004 2.417-1.135l.394-9.074h.493l.099-1.381-.099-.888L10.67.092h1.874l1.973.296.79-.198c.788.526 1.56.921 2.317 1.184.756.263 1.529.493 2.318.69l.197.494 1.677.493v.394c.526 0 .953.263 1.282.79l.296.591-.493 1.578.296.888-.099 1.38h.493l.79-1.479 1.479-.69.197.69h.395v.69l-.888 2.27 3.156.493 2.96-.198c1.183.329 2.383.658 3.6.987a8.301 8.301 0 0 1 3.303 1.775c.987.855 2.203 1.15 3.65.888v.197l-.395 1.973.198.493c.263.329.394.822.394 1.48l-.394 1.183h.591l.395 1.775.592.197.394.395h.296l.197.79-.986.098-.197.493 1.48.69.197.592-.198.79.296.788-1.282.296-1.973-.69v-.198h-.296l-.887.198v.394h-.296l-3.748-.592-1.677.198-1.775-.198a4.022 4.022 0 0 1-2.466.395l-.69-.197-.494.197-.592-.197c-.131.46-.493.723-1.085.789-.789.46-1.249 1.085-1.38 1.874l-.395 1.183.395 3.748-.395 1.48c.329 1.512.69 3.074 1.085 4.685a67.6 67.6 0 0 1 .986 4.734 28.496 28.496 0 0 0 1.184 4.587h.592a17.849 17.849 0 0 1 5.868-1.578 67.62 67.62 0 0 1 6.412-.296c2.202 0 4.29-.263 6.263-.79l.197.79-.493.197-.197.592h-.296v.296c-1.315.526-2.68.953-4.094 1.282a24.079 24.079 0 0 1-4.438.592 21.79 21.79 0 0 0-4.587.69v.395l-3.452 1.972-.591 2.663c.328.987.657 1.94.986 2.86l.493.1v1.183c-.658.658-.888 1.545-.69 2.663h-.198l-1.085-.296v-.197h-.296v.296l-.69.197-2.367-.493-1.381 1.184zm41.575.722l-.493-.789-1.874-.592v-.591l-.887-.296v-.395a11.052 11.052 0 0 1-2.466-.888 16.073 16.073 0 0 1-2.269-1.38l-.197-.592-1.184-.395-.591-.69-1.085-.592-.592-2.466.197-1.183a591.787 591.787 0 0 0-1.282-9.962c-.46-3.354-.904-6.707-1.332-10.06a115.578 115.578 0 0 1-.838-10.259l.197-1.48-.296-4.142c.198-.92.296-1.89.296-2.91 0-1.019.132-1.956.395-2.81l-.198-.79.592-1.479.493.197V8.41l-.098-1.38.493-1.48h.592c0-1.381.394-2.63 1.183-3.748a4.328 4.328 0 0 1 2.663-.888c1.25.329 2.5.592 3.748.79 1.25.196 2.433.624 3.551 1.281a19.275 19.275 0 0 0 3.354 1.579c0 .92.263 1.643.789 2.17l.887.295.198.493.592.296.197 1.579-.592 1.676v.79l.592 2.07-.395.198a22.617 22.617 0 0 0-.394 4.241 14.34 14.34 0 0 1-.592 4.143h.394a96.395 96.395 0 0 1 6.658-3.305 37.521 37.521 0 0 1 7.102-2.367 80.314 80.314 0 0 1 7.545-1.331 8.976 8.976 0 0 0 2.367.296c.855 0 1.611.328 2.269.986l.69.888.888.296.395.69.493.197.592.592v.592l-1.48 1.282-1.874.395v.591l.79.592v.296h.59l.889-.099v.395h.197l-2.762 1.085v.493h-.394l-.198 1.48-.986.296-.197.394-2.269.197v.395l-3.452.789v.296c-.986.263-1.956.69-2.91 1.282a8.713 8.713 0 0 1-3.008 1.184v.394l-2.071.986c-.329.592-.954.888-1.874.888a16.212 16.212 0 0 1-1.628 3.699 11.615 11.615 0 0 0-1.43 3.6l-.986.296v.592h-.296l-.592.986-.592.197a50.788 50.788 0 0 0-.69 3.502 11.632 11.632 0 0 0 0 3.698c.329.527.427 1.118.296 1.776l-.198.69c.527 1.052.724 2.203.592 3.452l-.197.987c.526 1.25.79 2.564.79 3.945-1.185-.131-2.138.066-2.861.592l-.198.69h-.69l-.789-.098-.592.098v.987c-.657-.066-1.216.065-1.677.394zm53.33-6.41a21.94 21.94 0 0 1-3.502-1.234 31.067 31.067 0 0 0-3.501-1.331v-.395l-1.874-.69v-.395l-2.466-.394v-.198a170.397 170.397 0 0 1-3.058-.986v-.395a5.322 5.322 0 0 1-1.676-.69v-.296l-.494-.296-.789-1.085h-.296a21.931 21.931 0 0 1-1.874-3.6 18.623 18.623 0 0 1-1.134-3.945 53.915 53.915 0 0 1-.542-4.192 45.72 45.72 0 0 1 .542-3.945c.23-1.25.51-2.466.839-3.65l-.198-2.367c.132-1.052.296-2.055.493-3.008.198-.954.724-1.792 1.579-2.515l.789-.198.098-.789 2.565-1.085.098-.493a25.724 25.724 0 0 1 3.305-.986 16.339 16.339 0 0 0 3.304-1.134 12.79 12.79 0 0 1 3.452-1.036l.493.296 2.367-.296c1.315.263 2.63.46 3.946.592 1.315.131 2.597.394 3.846.789 1.25.394 2.433.855 3.551 1.38l1.184.888v.493c.986 0 1.808.362 2.465 1.085l.198.494h.789l.986.789v.296h.493l.493.986.494.789.394.296c.46.526.871 1.068 1.233 1.627.362.56.608 1.2.74 1.924h.296c.394.92.822 1.824 1.282 2.712.46.888.855 1.841 1.184 2.86.328 1.02.493 2.055.493 3.107l-.198.395.198 1.38h-.198v.494h-.098l-.493 2.071h-.494l-.098 1.085.098.493-.591 1.381-2.072.493-.296 1.085-1.084.296-.296.592-1.184.493v-.493h-.296l-.888.395v.394l-.493.395v.197l-1.085.69-.493.592-1.38.986-.593.79h-.295l-.198.591a5.363 5.363 0 0 1-2.367.987l-.592-.198-.789.493-.296.888.099.986-.592.79c-.855.328-1.726.657-2.614.986-.887.329-1.857.493-2.91.493zm-1.874-9.47a14.38 14.38 0 0 0 3.65-1.775c1.183-.79 2.333-1.562 3.451-2.318a30.505 30.505 0 0 1 3.452-2.022 9.554 9.554 0 0 0 1.233-2.268c.296-.79.444-1.677.444-2.664h-.296l-1.874-3.353-.493-.197-.197-1.085h-.296v-.493h-.296v-.296l-.493-.296-.592-.493-1.38-1.283a24.625 24.625 0 0 0-3.404-.789 34.479 34.479 0 0 0-3.55-.394 36.442 36.442 0 0 1-3.6-.395l-2.466.69-.198.494-1.676 1.874h-.493l-.296 1.38h-.395v.494h-.197a54.246 54.246 0 0 0-1.282 3.205 14.655 14.655 0 0 0-.79 3.403 33.972 33.972 0 0 0-.197 3.748 17.509 17.509 0 0 0 1.776 3.255l1.48.395 1.084.789c.79.131 1.578.345 2.367.64.79.297 1.644.445 2.565.445l2.959-.69zm48.425 9.47a21.94 21.94 0 0 1-3.502-1.234 31.067 31.067 0 0 0-3.501-1.331v-.395l-1.874-.69v-.395l-2.466-.394v-.198a170.397 170.397 0 0 1-3.058-.986v-.395a5.322 5.322 0 0 1-1.676-.69v-.296l-.494-.296-.789-1.085h-.296a21.931 21.931 0 0 1-1.874-3.6 18.623 18.623 0 0 1-1.134-3.945 53.915 53.915 0 0 1-.542-4.192 45.72 45.72 0 0 1 .542-3.945c.23-1.25.51-2.466.839-3.65l-.198-2.367c.132-1.052.296-2.055.493-3.008.198-.954.724-1.792 1.579-2.515l.789-.198.098-.789 2.565-1.085.098-.493a25.724 25.724 0 0 1 3.305-.986 16.339 16.339 0 0 0 3.304-1.134 12.79 12.79 0 0 1 3.452-1.036l.493.296 2.367-.296c1.315.263 2.63.46 3.946.592 1.315.131 2.597.394 3.846.789 1.25.394 2.433.855 3.551 1.38l1.184.888v.493c.986 0 1.808.362 2.465 1.085l.198.494h.789l.986.789v.296h.493l.493.986.494.789.394.296c.46.526.871 1.068 1.233 1.627.362.56.608 1.2.74 1.924h.296c.394.92.822 1.824 1.282 2.712.46.888.855 1.841 1.184 2.86.328 1.02.493 2.055.493 3.107l-.198.395.198 1.38h-.198v.494h-.098l-.493 2.071h-.494l-.098 1.085.098.493-.591 1.381-2.072.493-.296 1.085-1.084.296-.296.592-1.184.493v-.493h-.296l-.888.395v.394l-.493.395v.197l-1.085.69-.493.592-1.38.986-.593.79h-.295l-.198.591a5.363 5.363 0 0 1-2.367.987l-.592-.198-.789.493-.296.888.099.986-.592.79c-.855.328-1.726.657-2.614.986-.887.329-1.857.493-2.91.493zm-1.874-9.47a14.38 14.38 0 0 0 3.65-1.775c1.183-.79 2.333-1.562 3.451-2.318a30.505 30.505 0 0 1 3.452-2.022 9.554 9.554 0 0 0 1.233-2.268c.296-.79.444-1.677.444-2.664h-.296l-1.874-3.353-.493-.197-.197-1.085h-.296v-.493h-.296v-.296l-.493-.296-.592-.493-1.38-1.283a24.625 24.625 0 0 0-3.404-.789 34.479 34.479 0 0 0-3.55-.394 36.442 36.442 0 0 1-3.6-.395l-2.466.69-.198.494-1.676 1.874h-.493l-.296 1.38h-.395v.494h-.197a54.246 54.246 0 0 0-1.282 3.205 14.655 14.655 0 0 0-.79 3.403 33.972 33.972 0 0 0-.197 3.748 17.509 17.509 0 0 0 1.776 3.255l1.48.395 1.084.789c.79.131 1.578.345 2.367.64.79.297 1.644.445 2.565.445l2.959-.69zm35.997 23.672l-.394-.098v-.296h-1.973l-.592.098-1.085-.887a23.313 23.313 0 0 0-.986-2.91 15.143 15.143 0 0 1-.888-3.008l.099-.296-.296-3.255v-.69l-.197-.79c.263-1.183.328-2.4.197-3.65l-.493-6.607.098-.198-.493-4.34.099-.887-.099-.493.099-.494-.099-.986.099-.493-.296-5.425-2.663-.888-.099-2.86h.296l.296-1.48h.296l.592-1.676h.394l.296-1.48 1.184-1.48.296-2.76-1.184-1.283v-.69l.493-2.664h.099v-.394h.296v-.197h.296l.197-1.776c.789.263 1.38.132 1.775-.394l.296-.69h.395l.789.394v.296h.493v.296l.592.295 1.38 1.776v-.197l1.184-.395.69-.296c.198-.592.625-.953 1.283-1.085a55.73 55.73 0 0 0 3.403-1.331 13.631 13.631 0 0 1 3.698-.987 15.175 15.175 0 0 1 4.044.05c.92.131 1.858.296 2.811.493.954.197 1.825.444 2.614.74.79.295 1.644.542 2.565.74v.295a4.785 4.785 0 0 1 1.874.839c.591.427 1.216.74 1.874.937l.098.591.888.296.197.592.888.395.099.591h.295v.494h.494v.69l.887.099 2.269 2.761a6.204 6.204 0 0 0 1.233 2.022c.559.625.838 1.398.838 2.318h.296v.395h.296l.296 3.156-.197.789.789 2.663-.296 1.775.296.888-.888 3.946h-.296v.591l.099.592c-.198.986-.51 1.89-.937 2.712A20.878 20.878 0 0 0 233 48.947l-.69.493v1.184l-.592.099-.592 1.183h-.197l-.493.592h-.888l-.394-.197v.296c-.592 0-1.184.23-1.776.69l-.493-.099c-.657.527-1.447.724-2.367.592v-.098h-.888l-1.48.394-.197.395a7.17 7.17 0 0 1-2.07.296c-.724 0-1.48.065-2.27.197l-.098-.197-.197.197-.296-.197-3.354.295-.986-.394-.296-.592-1.282-.394v-.395c-1.184-.723-2.4-1.183-3.65-1.38v-.79a36.354 36.354 0 0 0-2.317-.69 13.908 13.908 0 0 0-2.516-.395l-.098-.592h-.592l-.592.395-.296 2.17c.198.855.346 1.775.444 2.762.099.986.197 1.923.296 2.81.099.888.247 1.825.444 2.812l-.395 3.748.395 2.17-.296.69.296.888-.395 2.663.099.394-1.085.592zm.296-23.277v-.888h.296l.394-1.677 8.581-.197.69.197.395-.197 6.017.493a18.756 18.756 0 0 1 3.55-1.183v-.296a10.2 10.2 0 0 0 2.417-1.43c.69-.56 1.43-1.168 2.22-1.825a9.683 9.683 0 0 0 1.282-3.107c.263-1.15.427-2.285.493-3.403h.197l.099-1.183-.099-.395.099-1.085a16.475 16.475 0 0 0-1.628-2.762 11.156 11.156 0 0 0-2.219-2.268c-.986-.724-2.038-1.217-3.156-1.48a29.08 29.08 0 0 0-3.452-.592v-.098l-2.86-.296a7.245 7.245 0 0 1-1.973.542c-.724.1-1.414.247-2.072.444l-.394-.197v.296a21.55 21.55 0 0 0-3.452 2.17v.197h-.296l-.592 1.085-.592.493-.493.493-.888 1.381-.493.198c-.197.789-.394 1.479-.592 2.07h-.295c-.46.987-.839 1.973-1.135 2.96a69.697 69.697 0 0 1-1.035 3.156l.197.888-.197.986.197.69-.197.395c.131.92.197 1.825.197 2.712 0 .888.131 1.792.394 2.713h.395z" fill="#000" fill-rule="evenodd"/></svg>