<svg width="234" height="74" viewBox="0 0 234 74" xmlns="http://www.w3.org/2000/svg"><title>troop</title><path d="M29.653 62.687c1.616 0 3.535-.404 5.151-.707 1.717-.303 4.949-2.222 6.06-3.838 1.616-1.616 2.323-4.343 2.626-6.666l-.606-5.454-.909-.303c-1.717 1.01-3.636 2.02-5.151 3.03-1.616 1.01-3.535 2.02-5.353 2.727-2.323.303-3.838-.303-5.252-1.717-1.616-1.01-2.222-2.02-2.222-3.737 0-1.616-.303-3.03-.606-4.343l.303-5.05-.303-5.454c.303-1.717.606-3.03 1.01-4.343 0 0 .909-1.717 1.818-2.727 1.414-1.01 3.232-1.313 5.555-1.717 1.919 0 3.838 0 6.06-.303 1.919-.303 3.535-1.01 5.05-2.727l-.707-4.343c-1.717-.707-3.737-1.01-5.252-1.414h-5.454c-2.02 0-3.939-.303-5.151-.606-.404-2.424-.606-7.474-1.515-9.797L18.139.168l-5.353 1.313-.202.707 1.212 3.737s-.202 3.838-1.111 7.07c-2.525 0-5.858.303-7.878-.707l-3.232.707-.909 3.03 2.02 5.757c1.313 1.01 3.03 1.616 4.848 1.616 1.515 0 3.232.404 4.646.707.909 3.333.101 8.484-.202 12.221-.303 4.04.303 7.777 1.616 10.807 1.01 3.333 2.929 6.464 5.05 9.494 1.717 1.616 3.333 3.03 5.252 4.04 1.515 1.01 3.535 1.616 5.757 2.02zm20.633 1.01l2.525-.303c.707-2.02.909-4.04 1.313-6.363.202-2.424.505-4.444.808-6.767.303-2.02.707-4.04 1.212-6.363.606-2.323 1.01-3.838 1.717-5.858.505-1.616 1.414-3.737 2.626-5.353 1.212-3.333 2.525-4.646 4.545-5.656 1.515-1.01 3.232-1.414 5.252-1.717 1.818 0 3.838 0 5.757-.303l2.525-.606c2.626 0 5.05-.505 7.474-2.626l-1.717-3.737c-1.515-1.313-3.838-2.424-5.353-2.828-1.717-.303-3.434-.303-4.747-.606-1.717 0-3.535 0-5.252.303-1.717.303-3.535.707-4.848 1.313-1.515.707-5.05 3.03-5.05 3.03l-.707-2.828c-1.111-.707-2.02-2.02-3.535-2.424-1.515-.303-3.939-1.01-3.939-1.01l-2.121.404c-.606 2.727-1.212 5.353-1.515 8.08-.606 3.737-1.111 6.464-1.313 9.191-.303 3.03-.909 5.757-1.111 8.383v7.474c0 2.323.202 4.747.808 7.07.303 2.424.808 4.444 1.717 6.767l2.929 3.333zm54.367 1.717c2.424 0 4.848-.303 7.07-1.01 2.02-.202 3.939-1.212 6.06-2.02 2.929-1.818 5.656-3.838 7.373-6.868 1.515-2.424 3.232-5.252 4.747-8.08 1.515-2.828 4.444-7.979 4.04-13.938-.404-2.424-2.424-6.666-3.333-8.383-1.414-1.616-2.121-3.333-4.646-5.05-1.818-1.111-3.434-1.818-5.555-3.333-2.222-1.616-5.656-2.323-7.575-2.929-3.434-1.212-5.05-2.323-10.403-2.323l-4.444 2.323c-2.121 2.323-4.242 4.545-5.858 7.07-1.717 2.525-3.333 5.353-4.242 8.383-1.111 2.727-2.02 5.757-2.323 8.787-.303 2.929 0 5.656.303 8.181.303 2.929 1.212 5.656 2.02 7.979 1.01 2.323 2.222 4.545 4.141 6.666 1.919 1.313 4.04 2.323 6.161 2.929 2.02.909 4.242 1.313 6.464 1.616zm5.959-12.524l-4.646 2.02c-1.313.303-2.727 0-4.242-.303-1.414-.404-2.727-.808-3.838-1.717-1.212-1.01-2.02-2.222-2.525-3.737-1.01-1.414-1.414-2.525-1.818-3.939-.303-1.616 0-3.131.404-4.646.202-1.717.505-2.929 1.01-4.343.909-1.717 1.818-3.131 3.232-4.646 1.414-1.313 5.353-4.646 6.666-5.454h1.414c3.232-.202 5.353.909 6.969 2.525 1.717 1.717 4.141 1.818 5.757 3.838 1.616 1.313 1.717 3.737 1.01 8.181l-.707 2.525c-1.111 2.02-2.323 3.939-3.636 5.353a33.012 33.012 0 0 1-5.05 4.343zm41.641 12.524c2.424 0 4.848-.303 7.07-1.01 2.02-.202 3.939-1.212 6.06-2.02 2.929-1.818 5.656-3.838 7.373-6.868 1.515-2.424 3.232-5.252 4.747-8.08 1.515-2.828 4.444-7.979 4.04-13.938-.404-2.424-2.424-6.666-3.333-8.383-1.414-1.616-2.121-3.333-4.646-5.05-1.818-1.111-3.434-1.818-5.555-3.333-2.222-1.616-5.656-2.323-7.575-2.929-3.434-1.212-5.05-2.323-10.403-2.323l-4.444 2.323c-2.121 2.323-4.242 4.545-5.858 7.07-1.717 2.525-3.333 5.353-4.242 8.383-1.111 2.727-2.02 5.757-2.323 8.787-.303 2.929 0 5.656.303 8.181.303 2.929 1.212 5.656 2.02 7.979 1.01 2.323 2.222 4.545 4.141 6.666 1.919 1.313 4.04 2.323 6.161 2.929 2.02.909 4.242 1.313 6.464 1.616zm5.959-12.524l-4.646 2.02c-1.313.303-2.727 0-4.242-.303-1.414-.404-2.727-.808-3.838-1.717-1.212-1.01-2.02-2.222-2.525-3.737-1.01-1.414-1.414-2.525-1.818-3.939-.303-1.616 0-3.131.404-4.646.202-1.717.505-2.929 1.01-4.343.909-1.717 1.818-3.131 3.232-4.646 1.414-1.313 5.353-4.646 6.666-5.454h1.414c3.232-.202 5.353.909 6.969 2.525 1.717 1.717 4.141 1.818 5.757 3.838 1.616 1.313 1.717 3.737 1.01 8.181l-.707 2.525c-1.111 2.02-2.323 3.939-3.636 5.353a33.012 33.012 0 0 1-5.05 4.343zm29.824 21.008l1.919-.404c1.414-2.626 2.323-5.656 2.727-8.787.303-3.03 1.616-6.262 2.424-9.292l4.141.707c3.535 0 7.07-.404 10.605-1.414 3.535-1.01 6.868-1.717 10.403-2.02 3.535-.303 6.666-1.313 9.595-3.333 2.929-3.535 3.535-7.575 4.04-10.807 0-2.424-.404-4.444-1.01-6.464-.707-2.02-1.01-3.737-2.525-5.757-1.212-2.02-2.525-3.434-4.343-5.757-1.919-1.616-3.838-3.03-6.161-4.343-2.222-1.01-4.444-1.717-7.07-2.02-2.828-.303-5.353 0-7.979.303-2.828.404-5.454 1.414-7.777 2.424l-.909 1.01-1.616-2.424-4.444-2.727c-2.02.707-3.636 1.717-4.949 3.434l.606 2.02c-.202 3.333-.606 6.767-.909 10.1-.303 3.737-.303 7.171-.303 10.807-.404 3.737-.707 7.171-1.01 10.504l-1.313 15.049c-.202 2.727.707 5.151 2.424 6.767l3.434 2.424zm22.523-29.997c-1.212.505-4.545 1.818-6.868 1.616-2.929-.404-4.545-.404-7.979-.909l-1.414-8.787.303-4.444 2.424-3.03 9.595-4.646c2.828-.404 4.949.303 7.07 1.313 2.323 1.313 4.848 2.525 8.484 8.282l-.101 2.222c-1.212 1.717-2.02 3.03-3.636 4.04-1.515 1.414-3.939 2.525-7.878 4.343z" fill="#000" fill-rule="evenodd"/></svg>