<svg width="183" height="69" viewBox="0 0 183 69" xmlns="http://www.w3.org/2000/svg"><title>TROOP</title><path d="M17.966 68.091l1.414-.303.707-1.616V45.265l.202-.202-.202-2.828.202-5.656v-6.262c0-2.02-.101-3.939-.404-5.656l.404-14.241 4.444-.303.707.303 1.414-.303 2.121.303 6.363-1.01 1.616-2.02V5.067c0-.808-.202-1.313-.505-1.717l-2.525-2.222-.808.505-1.212-.505-.202.505-3.535-.505a25.93 25.93 0 0 1-5.05 1.515c-1.818.303-3.535.505-5.353.707h-9.09l-.303.303-6.363-1.111-1.414.808-.303.909v4.04c0 1.414.202 2.626.505 3.737l1.616.606 9.696-2.525h.505l.909 6.565.505.404c.909 3.131 1.414 6.363 1.515 9.797 0 3.434.101 6.868.303 10.302l-.303 3.03v18.887l-.101.202c.101 1.717.303 3.232.707 4.444.505 1.414 1.111 2.828 1.818 4.04v.303zm24.218.606l1.414-.606c.707-5.454 1.313-10.908 1.717-16.564.404-5.656 1.01-11.009 1.717-16.362l2.828.707 1.01-.303h.505v1.313l1.717.303c2.323 4.444 4.848 8.888 7.373 13.635a40.168 40.168 0 0 0 9.494 12.12l6.565 4.04 2.121-.808.808-.909-.505-2.626-2.222-1.414-2.525-2.626-3.333-2.222C68.242 52.84 66.02 49.103 64 45.164c-1.919-3.838-3.636-7.878-4.949-12.12v-1.212l3.333-3.535.606-1.01.808-.303c1.111-1.515 2.02-2.929 2.727-4.444.808-1.515 1.414-3.03 1.818-4.747l-.404-3.434.404-1.616c.101-1.414 0-2.828-.404-4.141-.505-1.212-1.01-2.424-1.616-3.535C65.212 4.057 64 3.35 62.788 2.643c-1.111-.707-2.424-1.212-3.737-1.616l-3.03.303-.404-.303a20.812 20.812 0 0 0-7.575 2.121 157.53 157.53 0 0 0-7.07 3.333l-.808-.303h-1.717l.404 1.212-.202 3.434v1.616l.707.303 1.01 11.413a500.417 500.417 0 0 1-.606 17.978c-.303 5.959-.707 11.817-1.313 17.473l.202 3.939c.707.909 1.212 1.818 1.717 2.929.404 1.01.909 1.818 1.818 2.222zm8.686-42.016l-1.212.606h-3.232l-.303-1.616c0-2.727 0-5.454-.101-8.282-.101-2.626.404-5.151 1.515-7.171 1.313-1.515 2.626-2.525 4.141-3.03 1.515-.505 2.929-.808 4.545-1.01.909 0 1.717 0 2.323.101.707.101 1.414.505 2.121 1.111l1.717 4.747c.202 1.414.101 2.929-.202 4.242-.505 1.414-1.01 2.626-1.717 3.636-1.414 1.818-2.828 3.333-4.444 4.444-1.717 1.01-3.333 1.818-5.151 2.222zm41.802 37.774c1.717-.101 3.434-.404 5.151-1.111 1.616-.707 3.131-1.616 4.545-2.929l.202-1.01.707-.404c.707-.606 1.111-1.313 1.212-2.02.101-.606.303-1.414.606-2.323l.707-.404c.707-2.121 1.212-4.343 1.515-6.868.202-2.424.606-4.949 1.01-7.373 0-4.444-.505-8.686-1.515-12.524-1.111-3.838-1.818-7.979-2.121-12.423h-.404l-.505-3.333-.808-.303-1.717-3.636-.707-.808v-.505l-1.111-.404V5.37c-1.111-.404-2.424-.707-3.737-.909-1.212-.101-2.525-.505-3.636-1.01-1.717-.404-3.333-.101-4.848.707a14.482 14.482 0 0 0-3.838 3.636 34.372 34.372 0 0 0-5.151 11.615c-1.01 4.242-1.515 8.686-1.616 13.332 0 4.242.202 8.282.505 12.322.303 4.04 1.414 7.474 3.434 10.504 1.616 2.626 3.434 4.545 5.656 5.858 2.121 1.212 4.343 2.323 6.464 3.03zm2.828-9.09l-.909.707h-2.727c-.909 0-1.616-.505-2.424-1.414-1.616-1.515-2.727-3.434-3.333-5.656-.707-2.323-1.01-4.545-1.01-7.07 0-4.444.404-8.686 1.111-12.827.606-4.04 1.717-7.979 3.232-11.817l1.01-.505v-.707l2.222-1.01 1.919 1.01c2.02 3.434 3.636 7.272 4.848 11.413 1.212 4.242 1.919 8.484 2.222 12.827l-.404 7.777-2.323 3.636v.606h-.707l-2.727 3.03zm33.025 9.09c1.717-.101 3.434-.404 5.151-1.111 1.616-.707 3.131-1.616 4.545-2.929l.202-1.01.707-.404c.707-.606 1.111-1.313 1.212-2.02.101-.606.303-1.414.606-2.323l.707-.404c.707-2.121 1.212-4.343 1.515-6.868.202-2.424.606-4.949 1.01-7.373 0-4.444-.505-8.686-1.515-12.524-1.111-3.838-1.818-7.979-2.121-12.423h-.404l-.505-3.333-.808-.303-1.717-3.636-.707-.808v-.505l-1.111-.404V5.37c-1.111-.404-2.424-.707-3.737-.909-1.212-.101-2.525-.505-3.636-1.01-1.717-.404-3.333-.101-4.848.707a14.482 14.482 0 0 0-3.838 3.636 34.372 34.372 0 0 0-5.151 11.615c-1.01 4.242-1.515 8.686-1.616 13.332 0 4.242.202 8.282.505 12.322.303 4.04 1.414 7.474 3.434 10.504 1.616 2.626 3.434 4.545 5.656 5.858 2.121 1.212 4.343 2.323 6.464 3.03zm2.828-8.09l-.909.707h-2.727c-.909 0-1.616-.505-2.424-1.414-1.616-1.515-2.727-3.434-3.333-5.656-.707-2.323-1.01-4.545-1.01-7.07 0-4.444.404-8.686 1.111-12.827.606-4.04 1.717-7.979 3.232-11.817l1.01-.505v-.707l2.222-1.01 1.919 1.01c2.02 3.434 3.636 7.272 4.848 11.413 1.212 4.242 1.919 8.484 2.222 12.827l-.404 7.777-2.323 3.636v.606h-.707l-2.727 3.03zm21.915 12.13l1.212-.202c.707-5.656 1.212-11.413 1.717-17.17.505-5.555.909-11.312 1.313-17.17l4.747 2.02c2.626 0 4.949-.505 7.07-1.515 2.02-.909 4.242-1.818 6.464-2.929 2.121-2.222 3.636-4.545 4.545-7.07a47.213 47.213 0 0 0 2.121-8.08 17.087 17.087 0 0 0 0-5.555c-.303-1.818-1.212-3.232-2.727-4.545-2.02-1.313-4.04-2.424-6.06-3.232a34.158 34.158 0 0 0-6.868-2.121c-2.02 0-4.04.202-5.858.707-2.02.505-3.737 1.212-5.454 2.121l-3.838-2.02-2.323.303v.808l-1.818.202c-.707.202-1.01.606-1.01 1.111 0 .707-.404 1.01-1.111 1.01l.101 2.02-.101 2.02v.303l1.515.505c1.616 1.818 2.727 3.636 3.131 5.656.505 2.02.808 4.141.808 6.161V41.73a138.241 138.241 0 0 1-.909 9.898c-.404 3.232-1.01 6.464-1.717 9.595-.202 1.111-.101 1.919.404 2.626.505.808.909 1.717 1.111 2.626l3.535 2.02zm14.443-42.42l-.909.606h-2.02l-6.767-5.353c-.303-2.222-.303-4.242.101-5.858.505-1.717 1.313-3.333 2.626-4.747l4.04-2.222c1.111 0 2.121 0 3.131.101a4.755 4.755 0 0 1 2.626 1.111c.707.707 1.313 1.515 1.717 2.424.303.909.606 1.919.808 2.828l-.606 6.565a43.248 43.248 0 0 0-1.919 2.626 7.04 7.04 0 0 1-2.828 1.919z" fill="#000" fill-rule="evenodd"/></svg>