<svg width="335" height="78" viewBox="0 0 335 78" xmlns="http://www.w3.org/2000/svg"><title>TROOP</title><path d="M59.35 2.308v12.871H37.602V75H22.314V15.18H.466V2.307H59.35zm19.117 12.625v19.529h17.211c3.42 0 5.984-.395 7.693-1.184 3.025-1.38 4.537-4.11 4.537-8.186 0-4.406-1.463-7.365-4.389-8.877-1.644-.855-4.11-1.282-7.397-1.282H78.467zM111.04 4.182c2.745 1.15 5.071 2.844 6.978 5.08a22.507 22.507 0 0 1 3.748 6.114c.921 2.236 1.381 4.784 1.381 7.645 0 3.452-.871 6.846-2.614 10.183-1.742 3.337-4.619 5.696-8.63 7.077 3.354 1.348 5.729 3.263 7.126 5.746 1.398 2.482 2.096 6.271 2.096 11.367v4.882c0 3.321.132 5.573.395 6.757.394 1.874 1.315 3.255 2.762 4.142V75h-16.719c-.46-1.611-.789-2.91-.986-3.896a35.795 35.795 0 0 1-.641-6.263l-.099-6.757c-.066-4.635-.912-7.726-2.54-9.271-1.627-1.545-4.676-2.318-9.148-2.318H78.467V75H63.622V2.308h35.656c5.096.098 9.017.723 11.762 1.874zm66.707 53.31c3.534-4.438 5.301-10.75 5.301-18.937 0-8.154-1.767-14.458-5.301-18.913-3.535-4.455-8.31-6.682-14.327-6.682-6.016 0-10.816 2.22-14.4 6.658-3.584 4.438-5.375 10.75-5.375 18.937 0 8.187 1.791 14.5 5.375 18.938 3.584 4.438 8.384 6.657 14.4 6.657 6.017 0 10.792-2.219 14.327-6.657zm9.493 11.048c-5.49 5.655-13.43 8.482-23.82 8.482-10.389 0-18.329-2.827-23.82-8.482-7.364-6.938-11.046-16.932-11.046-29.985 0-13.315 3.682-23.31 11.047-29.984 5.49-5.655 13.43-8.483 23.82-8.483 10.389 0 18.329 2.828 23.82 8.483 7.331 6.674 10.997 16.669 10.997 29.984 0 13.053-3.666 23.047-10.998 29.985zm64.118-11.047c3.534-4.439 5.301-10.751 5.301-18.938 0-8.154-1.767-14.458-5.301-18.913-3.534-4.455-8.31-6.682-14.327-6.682-6.016 0-10.816 2.22-14.4 6.658-3.584 4.438-5.375 10.75-5.375 18.937 0 8.187 1.791 14.5 5.375 18.938 3.584 4.438 8.384 6.657 14.4 6.657 6.017 0 10.793-2.219 14.327-6.657zm9.493 11.047c-5.49 5.655-13.43 8.482-23.82 8.482-10.389 0-18.329-2.827-23.82-8.482-7.364-6.938-11.046-16.932-11.046-29.985 0-13.315 3.682-23.31 11.047-29.984 5.49-5.655 13.43-8.483 23.82-8.483 10.389 0 18.329 2.828 23.82 8.483 7.331 6.674 10.997 16.669 10.997 29.984 0 13.053-3.666 23.047-10.998 29.985zm55.586-51.19c-1.989-1.612-4.775-2.417-8.359-2.417h-14.154v21.403h14.154c3.584 0 6.37-.871 8.36-2.614 1.988-1.742 2.983-4.504 2.983-8.285 0-3.78-.995-6.477-2.984-8.088zm11.516 26.186c-4.34 3.55-10.538 5.326-18.593 5.326h-15.436V75h-15.09V2.308h31.66c7.3 0 13.119 1.874 17.459 5.622 4.34 3.748 6.51 9.55 6.51 17.408 0 8.581-2.17 14.647-6.51 18.198z" fill="#000" fill-rule="evenodd"/></svg>