<svg width="297" height="79" viewBox="0 0 297 79" xmlns="http://www.w3.org/2000/svg"><title>TROOP</title><path d="M32.979 77.293h1.818c1.414-2.424 2.121-5.05 2.121-8.08-.404-3.03 0-5.757.707-8.787.202-2.727.505-5.454.808-8.484l-.303-3.333-.303-24.341v-4.747c0-1.717.202-3.03 1.212-4.04 1.717-.606 3.535-1.414 7.171-1.616 2.929 0 8.08-3.131 11.11-3.131l2.626-2.323-.808-2.727c-1.818-1.717-4.444-2.727-6.969-2.727H31.363c-4.343 0-10.1.505-14.948 1.01-3.03 0-9.595.101-12.726-1.313l-2.323.606-.909 2.727c-.202 1.717.404 3.434 1.414 4.747 1.313 1.717 2.424 3.838 4.242 4.848 1.818 1.01 4.545.808 6.565.505 3.232-.202 8.181-.303 9.595-.606l1.616.707c.707 1.616 1.212 3.333 1.212 5.353-.505 2.323-.505 4.444 0 6.06l-.505 13.837c.505 2.02.505 4.141.505 6.464 0 2.323.303 4.343.606 6.363l-.303 3.434c.303 2.323.606 5.05.909 7.474.303 2.323.909 4.646 2.626 6.363 1.616 2.02 2.222 4.04 4.04 5.757zm85.98-1.717c1.414.404 4.242-.303 4.949-1.313v-4.444c-1.515-3.03-3.535-6.363-5.353-9.393-1.818-3.03-4.141-6.161-6.565-8.787-2.424-2.727-4.949-5.454-7.373-7.777l1.414-1.818c1.212-.303 2.626-1.313 3.838-2.323.909-1.01 2.323-1.717 3.131-2.727 0 0 2.424-3.232 3.939-8.484 0-2.323-.404-4.343-.707-6.767-.303-2.02-.909-4.04-1.616-6.06-.505-2.02-1.616-3.737-3.131-5.353-1.717-1.717-3.535-2.727-5.151-3.737-1.818-1.01-3.636-1.717-5.555-2.727-2.02-1.01-3.838-1.313-7.777-1.616h-7.07c-2.323.404-4.444 0-6.767.303-1.616-.303-3.737-.202-7.171-.303l-5.757-.202-2.323 1.01.707 3.03-1.212 37.37c0 2.727 0 5.454.303 8.181.303 2.626.404 6.969.606 11.009.303 2.626.505 5.656 1.515 8.08.606 1.313.404 3.939 1.616 4.444.606 1.313 2.121 2.626 3.939 2.626l2.424-.707c.909-1.616 1.212-3.636 1.515-5.656.303-2.02-.101-3.939.303-6.464.505-2.525 1.212-5.353 1.01-11.716-.303-3.03.202-5.656 1.313-8.08 2.02.404 5.252-.202 7.07.505l4.949-.202c3.636 2.323 8.585 5.757 11.413 9.191 2.828 3.737 5.555 7.373 8.08 11.11 2.626 3.737 5.555 7.07 9.494 9.797zM97.951 31.237c-3.535.707-5.353 1.313-7.272 1.616-1.818.707-3.636 1.313-5.555 1.616a77.928 77.928 0 0 1-5.858 1.01c-1.515.303-2.626 0-3.333-1.01 0-2.525 0-5.05.404-7.272.303-2.222.505-4.747.909-6.969.303-2.222 1.212-4.444 2.121-6.363l5.555-2.323c2.424.404 4.949.404 7.777.404 4.444-.101 6.868.202 8.989.909 1.111.909 2.02 2.121 2.929 3.434.505 1.616 1.111 2.929 1.717 4.444v2.222c-.808 1.515-1.919 3.131-3.535 4.545-1.616 1.515-3.333 2.828-4.848 3.737zm54.266 47.268l6.161.202 2.626-.505c2.121-.202 3.939-.606 6.161-1.313 2.121-.707 3.939-1.919 5.757-2.929a45.01 45.01 0 0 0 5.05-4.343c1.01-2.02 1.717-4.242 2.929-6.161 1.313-1.919 4.141-10.403 4.444-13.029.202-2.727.808-4.646 1.01-7.373.303-2.525.707-5.151 1.01-7.676-.303-2.323-.404-4.242-.707-7.07-.303-2.02-1.414-4.545-1.717-6.868-.505-2.222-1.616-4.343-3.232-6.161-1.818-1.515-3.636-2.929-5.555-3.939-1.818-1.313-3.535-2.323-5.353-3.434-1.818-1.212-3.535-2.424-5.555-3.434-1.717-.606-3.636-1.212-5.05-2.02-1.818-.303-3.636-1.01-5.656-1.515-2.525.505-4.848 1.212-6.868 2.525-2.121 1.616-4.04 2.727-5.858 4.242-2.121 1.515-4.04 3.737-5.757 5.959-1.919 2.626-3.434 5.252-4.949 7.979-1.515 2.929-2.626 5.858-3.737 8.383-1.212 3.03-2.323 6.262-2.929 9.494-.303 3.838-.101 7.777.505 11.211.303 3.838 1.313 6.868 2.424 9.696 1.313 3.434 2.828 6.464 5.05 9.09 1.818 1.818 3.737 3.333 5.757 4.848 2.222 1.515 4.444 2.525 6.969 2.828 2.121.404 4.444 1.01 7.07 1.313zm11.312-13.433c-1.111.909-2.323 1.616-3.535 2.02-1.515.707-2.626 1.111-4.04 1.414-2.02.303-4.343 0-6.464-.303-2.02-.404-4.141-.707-6.363-1.111-1.919-.404-3.838-1.717-5.353-3.636-1.414-1.616-2.222-3.636-2.525-5.454-.606-1.919-1.212-3.939-1.818-5.858-.303-3.636 0-7.07.606-10.1.606-3.03 1.111-6.262 2.626-8.989 1.111-2.525 2.323-5.555 3.939-8.181 1.515-2.727 2.626-3.03 4.242-4.04 1.717-1.212 2.929-2.323 4.343-3.333 1.515-1.212 2.929-2.626 4.444-2.929h1.414c3.737 1.818 7.07 4.444 8.989 7.07 2.323 2.626 4.848 4.646 6.868 7.07 2.02 2.424 2.323 5.959 2.121 8.989 0 3.434-.101 6.666-1.01 9.595-.909 3.131-2.727 5.858-3.333 8.888-.808 1.414-1.313 2.929-2.222 4.444-.909 1.919-1.919 3.131-2.929 4.444zm51.438 13.433l6.161.202 2.626-.505c2.121-.202 3.939-.606 6.161-1.313 2.121-.707 3.939-1.919 5.757-2.929a45.01 45.01 0 0 0 5.05-4.343c1.01-2.02 1.717-4.242 2.929-6.161 1.313-1.919 4.141-10.403 4.444-13.029.202-2.727.808-4.646 1.01-7.373.303-2.525.707-5.151 1.01-7.676-.303-2.323-.404-4.242-.707-7.07-.303-2.02-1.414-4.545-1.717-6.868-.505-2.222-1.616-4.343-3.232-6.161-1.818-1.515-3.636-2.929-5.555-3.939-1.818-1.313-3.535-2.323-5.353-3.434-1.818-1.212-3.535-2.424-5.555-3.434-1.717-.606-3.636-1.212-5.05-2.02-1.818-.303-3.636-1.01-5.656-1.515-2.525.505-4.848 1.212-6.868 2.525-2.121 1.616-4.04 2.727-5.858 4.242-2.121 1.515-4.04 3.737-5.757 5.959-1.919 2.626-3.434 5.252-4.949 7.979-1.515 2.929-2.626 5.858-3.737 8.383-1.212 3.03-2.323 6.262-2.929 9.494-.303 3.838-.101 7.777.505 11.211.303 3.838 1.313 6.868 2.424 9.696 1.313 3.434 2.828 6.464 5.05 9.09 1.818 1.818 3.737 3.333 5.757 4.848 2.222 1.515 4.444 2.525 6.969 2.828 2.121.404 4.444 1.01 7.07 1.313zm11.312-13.433c-1.111.909-2.323 1.616-3.535 2.02-1.515.707-2.626 1.111-4.04 1.414-2.02.303-4.343 0-6.464-.303-2.02-.404-4.141-.707-6.363-1.111-1.919-.404-3.838-1.717-5.353-3.636-1.414-1.616-2.222-3.636-2.525-5.454-.606-1.919-1.212-3.939-1.818-5.858-.303-3.636 0-7.07.606-10.1.606-3.03 1.111-6.262 2.626-8.989 1.111-2.525 2.323-5.555 3.939-8.181 1.515-2.727 2.626-3.03 4.242-4.04 1.717-1.212 2.929-2.323 4.343-3.333 1.515-1.212 2.929-2.626 4.444-2.929h1.414c3.737 1.818 7.07 4.444 8.989 7.07 2.323 2.626 4.848 4.646 6.868 7.07 2.02 2.424 2.323 5.959 2.121 8.989 0 3.434-.101 6.666-1.01 9.595-.909 3.131-2.727 5.858-3.333 8.888-.808 1.414-1.313 2.929-2.222 4.444-.909 1.919-1.919 3.131-2.929 4.444zM259.234 78l1.313-.404c1.515-2.323 2.02-4.646 2.424-7.373.303-2.323.505-5.05.808-7.777.303-2.727.303-8.181.303-14.645l4.949-.909c1.919-.303 6.868.505 8.888.202 2.727 0 5.353-.303 7.575-1.313 2.525-1.01 4.646-2.424 6.666-4.04 1.919-.707 2.929-2.424 3.535-4.444a81.555 81.555 0 0 0 1.313-6.464c0-2.828-.404-4.747-.303-5.757 0-2.02-.404-4.04-.909-5.757-.808-1.717-1.616-3.737-2.525-5.353-2.424-2.727-5.151-4.747-7.979-6.161a901.838 901.838 0 0 0-8.888-3.03c-5.757-1.01-8.181-2.424-11.211-2.02l-3.535-1.01c-1.818.707-3.131.404-4.848.303-.909 1.01-2.222.909-3.838 1.616l-1.616 3.333c1.01 1.717 1.212 3.737 1.212 6.06 0 2.424 0 4.444.303 6.464l-.909 17.271v7.07a42.584 42.584 0 0 0 0 8.787c.404 5.757.606 8.484.909 11.11.303 2.727.505 5.454 1.414 8.181 1.01 2.323 2.626 4.343 4.949 6.06zm22.624-44.642l-12.524 1.313c-2.222.303-4.04 0-5.252-1.313l-.101-8.989.101-3.333c-.606-.909-.101-4.444 1.313-8.282 1.414-1.111 2.929-.404 4.747.303 4.04.606 5.858 1.01 7.575 1.313 1.818.303 3.535 1.01 4.848 2.02.909 1.01 3.333 3.636 3.737 5.959v1.414c-.101 2.323-2.323 8.585-4.444 9.595z" fill="#000" fill-rule="evenodd"/></svg>