<svg width="202" height="91" viewBox="0 0 202 91" xmlns="http://www.w3.org/2000/svg"><title>troop</title><path d="M145.276 36.66c-1.147-4.994-3.627-9.386-7.442-13.178-5.454-5.42-12.305-8.13-20.553-8.13-8.249 0-15.1 2.71-20.554 8.13a28.523 28.523 0 0 0-4.246 5.33 28.523 28.523 0 0 0-4.246-5.33c-5.454-5.42-12.305-8.13-20.553-8.13-.658 0-1.306.017-1.946.052v-.052a18.656 18.656 0 0 0-3.761.47c-4.706.81-8.872 2.664-12.5 5.564V10.26h-15.15v6H21.614V0H6.363v16.261H0v10.908h6.363v25.048c0 5.925 1.801 10.605 5.404 14.039 3.602 3.434 13.18 8.076 18.398 8.076 5.028 0 13.856.112 18.71-3.733h.6v-5.188c5.032 3.997 11.1 5.996 18.206 5.996 8.249 0 15.1-2.693 20.554-8.08a28.268 28.268 0 0 0 4.246-5.303 28.268 28.268 0 0 0 4.246 5.303c5.454 5.387 12.305 8.08 20.554 8.08 8.248 0 15.099-2.693 20.553-8.08 3.815-3.768 6.295-8.145 7.442-13.131v39.997h15.15V63.428c4.04 5.32 9.376 7.979 16.009 7.979 6.632 0 12.422-2.693 17.372-8.08 4.949-5.387 7.423-12.086 7.423-20.099s-2.474-14.662-7.423-19.948c-4.95-5.285-10.589-7.928-16.918-7.928-6.33 0-11.817 2.323-16.463 6.969v-6.06h-15.15V36.66zM34.325 60.394l-.086-.056c-1.953 2.559-9.932-2.751-11.009-3.93-1.077-1.178-1.616-2.81-1.616-4.898V27.169h12.711v33.225zm23.66-6.106c2.526 2.794 5.757 4.191 9.697 4.191 3.939 0 7.17-1.397 9.695-4.191 2.526-2.795 3.788-6.414 3.788-10.858 0-4.444-1.262-8.08-3.788-10.908-2.525-2.828-5.756-4.242-9.695-4.242-3.94 0-7.171 1.414-9.697 4.242-2.525 2.828-3.787 6.464-3.787 10.908 0 4.444 1.262 8.063 3.788 10.858zm59.296 4.191c3.939 0 7.17-1.397 9.695-4.191 2.526-2.795 3.788-6.414 3.788-10.858 0-4.444-1.262-8.08-3.788-10.908-2.525-2.828-5.756-4.242-9.695-4.242-3.94 0-7.171 1.414-9.697 4.242-2.525 2.828-3.787 6.464-3.787 10.908 0 4.444 1.262 8.063 3.787 10.858 2.526 2.794 5.757 4.191 9.697 4.191zm46.63-4.191c2.457 2.794 5.437 4.191 8.938 4.191 3.501 0 6.565-1.397 9.191-4.191 2.626-2.795 3.939-6.38 3.939-10.757s-1.28-8.046-3.838-11.009c-2.559-2.963-5.622-4.444-9.191-4.444-3.569 0-6.582 1.464-9.04 4.393-2.457 2.93-3.686 6.6-3.686 11.01s1.229 8.012 3.687 10.807z" fill="#000" fill-rule="evenodd"/></svg>